<?xml version="1.0" encoding="utf-8"?>
<!-- Generator: Adobe Illustrator 16.0.0, SVG Export Plug-In . SVG Version: 6.00 Build 0)  -->
<!DOCTYPE svg PUBLIC "-//W3C//DTD SVG 1.1//EN" "http://www.w3.org/Graphics/SVG/1.1/DTD/svg11.dtd">
<svg version="1.1" id="Layer_1" xmlns="http://www.w3.org/2000/svg" xmlns:xlink="http://www.w3.org/1999/xlink" x="0px" y="0px"
	 width="724.05px" height="111.393px" viewBox="0 0 724.05 111.393" enable-background="new 0 0 724.05 111.393"
	 xml:space="preserve">
<path fill="none" stroke="#ED1C24" stroke-width="4" stroke-miterlimit="10" d="M40.672,55.131c0,0-6.833,7.334-18,6.167
	s-20.333-14.667-3.5-34s41.833-19,46.5-19s21.167,4,2,30.5S44.505,74.964,45.838,77.131s5.834-4,15.667-14.333
	c9.833-10.333,22-25,23.833-23.833s2.833,1.833-3.667,15.833s-8,24.166-5,23.166s14.167-12.333,17.667-16.166
	c3.5-3.833,30-35.5,2.667-47"/>
<path fill="none" stroke="#ED1C24" stroke-width="4" stroke-miterlimit="10" d="M134.505,20.798c0,0-27.25,46.75-28.25,56.25
	c0,0,22-27,26.5-30s8.75,0,3,7.75s-10.5,18.75-7.75,21s6.25,0.25,11.5-4.75s22.75-26.5,30-26.5c0,0-14.25,9-19.5,21.25
	s-1.5,13.5,6.5,6.5s13-14.75,13-14.75s-8,12.25-6,16.25s4.75,3.25,7.75,1s25-23.75,39.5-59.5c0,0-17.75,38.75-24.75,53
	s6,7.5,11.25,1.75s16-18,16-18"/>
<path fill="none" stroke="#ED1C24" stroke-width="4" stroke-miterlimit="10" d="M180.005,26.298c0,0,3.5,5.75,16.75,4.25
	s28.5-2.25,31.75,5.75"/>
<path fill="none" stroke="#ED1C24" stroke-width="4" stroke-miterlimit="10" d="M249.755,43.798c0,0-12.5,4.5-23.75,17.75
	s-1.5,17.25,2,14s17.75-18.25,17.75-18.25s-10.75,29.5,1.25,17.75s29.5-36,28.25-45.5s-25.25,24.5-6.25,20.75s14-2.5,14-2.5
	s-15,12.75-15,29.75s17.75,27.5,25.75,16"/>
<path fill="none" stroke="#ED1C24" stroke-width="4" stroke-miterlimit="10" d="M289.505,68.048c0,0,8,0.5,15-8.75s4.25-15.75-1-13
	s-20.75,24-15.5,29.5s23-9.5,32.25-23.25"/>
<path fill="none" stroke="#ED1C24" stroke-width="4" stroke-miterlimit="10" d="M341.005,41.048c0,0,3,9-2.5,19
	s-8.75,19.75-0.5,17.25s19.25-25.25,22-35.75c0,0-15.25,34.75-20.25,42.5s-17.75,18.75-23.25,20.25s-11.5-4.25-2-9.5
	s33-17.25,38.5-21.5s30.25-33.25,37.75-27c0,0-9-3.5-19.75,14.5c-10.75,18,2,20.25,10.5,11.75s9.75-11.75,9.5-13.75s-4-1-4,2.25
	s-0.25,12,8,5s14.25-20,14.75-20.75s-17.5,29.75-10.75,32s27.75-31.25,29.25-33.5c0,0-13.5,23.5-13,30s5,3.5,9.75-1
	s18.25-22.25,18.25-22.25"/>
<path fill="none" stroke="#ED1C24" stroke-width="4" stroke-miterlimit="10" d="M480.504,39.298c0,0-8.25,10.5-7.75,16
	c0,0,0.25-13.25-3.5-9.25s-12.25,14.5-13,23.75s8,9.5,16.75,0s18.25-22.5,21.5-29.75s6.75-16.75-3.75-9.75s-10,27.25,4,18.75
	s10.25,0.25,3.75,10.75s-8.75,26.5-5,32s14.25,11.25,23.5,1.5"/>
<path fill="none" stroke="#ED1C24" stroke-width="4" stroke-miterlimit="10" d="M534.004,44.548c0,0-14.25,6-20.5,14.25
	s-6.75,21-1,17s17-16.75,17-16.75s-7.25,17.75-2,18.25s23.25-22,27-30c0,0-13.25,27.75-7.75,28.5s24.75-18.75,28.75-25.25
	s8.75-22.25-10-24.5"/>
<path fill="none" stroke="#ED1C24" stroke-width="4" stroke-miterlimit="10" d="M593.504,45.548c0,0-15.25,24.75-12.75,29.25
	s7.5-0.25,14-5.5s16.75-22.5,18.75-26c0,0-13.5,25.75-14,31.75c0,0,25-31.75,29.5-31s-0.25,8.25-3.5,13.75s-13.25,24.75-4.75,18.75
	s30.5-31.25,35.5-31.5c0,0-12.25,11-15.5,18.75s-3.75,16.5,2.5,11.5s14.5-18,14.5-18s-5.5,25-15,34.75s-21.75,15.5-24.75,10.5
	s12-11.5,18.25-14.75s30.5-14,43.75-34"/>
<path fill="none" stroke="#ED1C24" stroke-width="4" stroke-miterlimit="10" d="M678.254,36.298c0,0,6.75-12.75,23-15.25
	s18.25,4.5,17.5,7.25s-2.25,8.5-14.25,14.5s-22.5,10.5-18.75,21.75"/>
<ellipse fill="none" stroke="#ED1C24" stroke-width="4" stroke-miterlimit="10" cx="687.865" cy="71.118" rx="2.083" ry="2.725"/>
</svg>
