<?xml version="1.0" encoding="utf-8"?>
<!-- Generator: Adobe Illustrator 16.0.0, SVG Export Plug-In . SVG Version: 6.00 Build 0)  -->
<!DOCTYPE svg PUBLIC "-//W3C//DTD SVG 1.1//EN" "http://www.w3.org/Graphics/SVG/1.1/DTD/svg11.dtd">
<svg version="1.1" xmlns="http://www.w3.org/2000/svg" xmlns:xlink="http://www.w3.org/1999/xlink" x="0px" y="0px"
	 width="731.963px" height="125.994px" viewBox="0 0 731.963 125.994" enable-background="new 0 0 731.963 125.994"
	 xml:space="preserve">
<g id="Layer_1" display="none">
	<g display="inline">
		<g>
			<path fill="#603F4B" d="M40.605,64.741c0,4.744-10.081,6.819-13.045,6.819c-9.71,0-20.903-6.448-20.903-18.976
				c0-16.455,27.722-37.283,57.149-37.283c7.486,0,17.641,3.706,17.641,13.639c0,13.045-29.427,47.735-29.427,51.07
				C55.949,76.823,84.19,45.47,84.19,45.47c0-5.263,7.857,2.742,7.857,7.115c0,4.374-12.082,22.386-12.082,30.613
				c8.228-7.264,25.943-27.648,25.943-44.399c0-8.154-4.299-13.343-7.116-13.343c-2.743,0-4.151-2.594,0.593-2.594
				c4.67,0,16.307,6.004,16.307,19.864c0,13.936-38.173,48.181-39.211,48.181c-1.038,0-6.3-1.112-6.3-9.858
				c0-8.747,11.711-27.723,11.711-27.723C63.436,71.413,50.538,88.905,50.538,88.905c0,3.854-8.969,1.261-8.969-5.707
				c0-10.748,33.578-45.512,33.578-56.927c0-3.632-3.854-7.857-10.822-7.857c-23.646,0-49.144,24.609-49.144,40.99
				c0,7.635,6.819,9.414,10.822,9.414C35.417,68.818,40.605,60.072,40.605,64.741z"/>
			<path fill="#603F4B" d="M123.622,77.046c0-4.3,10.674-19.791,10.674-19.791s-24.535,22.089-24.535,29.057
				c0,2.891-6.301-0.148-6.301-5.04c0-7.487,28.538-45.364,28.538-53.666c0-1.482,5.782,1.557,5.782,7.709
				c0,6.227-18.901,32.317-18.901,32.317s17.567-16.899,20.606-16.899c3.04,0,4.077,4.225,4.077,7.782
				c0,3.633-17.79,25.202-10.822,25.202c2.224,0,13.861-12.23,20.458-22.089c1.112-1.63,3.335-0.889,1.705,1.557
				c-1.556,2.372-17.641,24.387-24.386,24.387C125.697,87.571,123.622,81.345,123.622,77.046z"/>
			<path fill="#603F4B" d="M175.062,58.441c-8.673,0-28.389,25.202-23.053,25.202c1.779,0,17.123-16.975,16.381-18.31
				c-0.815-1.334,5.263-0.222,5.263,5.189s-6.968,13.193-4.596,13.193c2.298,0,13.417-12.23,19.939-22.089
				c1.112-1.63,3.335-0.889,1.779,1.557c-1.631,2.372-17.123,24.387-23.868,24.387c-3.039,0-6.004-4.596-6.004-6.448
				c0-1.779,1.26-4.521,1.26-4.521s-9.339,10.97-12.082,10.97c-2.668,0-6.967-3.409-6.967-8.673
				c0-8.598,18.012-28.314,26.313-28.314C173.802,50.584,176.693,58.441,175.062,58.441z"/>
			<path fill="#603F4B" d="M228.95,47.175c0-2.15-4.67-6.523-12.898-6.523c-1.556,0-3.113,0-4.595,0.074
				c-9.117,16.529-26.685,42.991-21.273,42.991c2.224,0,14.454-12.23,21.051-22.089c1.038-1.63,3.336-0.889,1.705,1.557
				c-1.557,2.372-18.16,24.387-24.979,24.387c-5.56,0-6.449-5.04-6.449-8.598c0-5.114,10.674-22.683,18.827-37.581
				c-2.594,0.148-5.337,0.148-8.302,0.148c-8.228,0-11.267-3.262-12.379-6.227c-0.889-2.594,0.297-3.113,1.557-2.001
				c2.149,1.778,5.855,3.483,10.97,3.483c4.447,0,8.376-0.296,10.97-0.593c3.706-6.968,6.3-12.675,6.3-15.121
				c0-2.149,7.19,0.444,7.19,7.932c0,1.26-0.964,3.706-2.594,6.893c0.741,0,1.408,0,2.149,0c9.266,0,13.49,4.967,14.603,8.97
				C231.544,47.471,228.95,47.175,228.95,47.175z"/>
			<path fill="#603F4B" d="M250.889,58.441c-8.672,0-28.389,25.202-23.052,25.202c1.779,0,17.122-16.975,16.381-18.31
				c-0.815-1.334,5.263-0.222,5.263,5.189s-6.967,13.193-4.595,13.193c2.298,0,13.416-12.23,19.939-22.089
				c1.112-1.63,3.335-0.889,1.779,1.557c-1.63,2.372-17.123,24.387-23.868,24.387c-3.039,0-6.004-4.596-6.004-6.448
				c0-1.779,1.26-4.521,1.26-4.521s-9.339,10.97-12.082,10.97c-2.668,0-6.968-3.409-6.968-8.673
				c0-8.598,18.012-28.314,26.314-28.314C249.628,50.584,252.52,58.441,250.889,58.441z"/>
			<path fill="#603F4B" d="M294.397,103.211c0,0-2.001,5.264-9.784,5.264c-7.783,0-18.234-7.116-18.234-21.496
				c0-10.451,6.522-21.792,10.081-27.203c-2.149,0.964-5.93,2.224-10.155,2.224c-2.076,0-5.708-1.187-5.708-9.34
				c0-11.637,8.821-19.865,13.935-19.865c2.743,0,5.041,1.779,5.041,4.818c0,6.004-10.303,19.865-10.303,19.865
				s9.858-5.114,11.415-6.004c1.038-0.594,1.927-1.705,3.187-0.667c1.186,1.037,7.042,5.337,3.706,9.117
				c-3.409,3.854-13.342,17.492-13.342,30.316c0,12.823,7.042,16.011,11.415,16.011c4.373,0,6.449-1.854,7.19-3.188
				C293.657,101.729,294.397,103.211,294.397,103.211z M267.565,56.365c4.299-7.856,8.895-14.898,6.375-14.898
				c-2.521,0-7.709,7.264-7.709,10.896C266.231,54.957,267.565,56.365,267.565,56.365z"/>
			<path fill="#603F4B" d="M320.858,63.259c-1.557,2.446-19.42,24.312-28.834,24.312c0,0-7.116-0.074-7.116-9.19
				c0-13.417,17.715-27.797,22.607-27.797c1.928,0,5.189,1.334,5.189,8.376s-15.714,19.197-19.569,19.197
				c0,0-2.742,4.967,1.112,4.967c4.966,0,18.309-11.563,24.832-21.422C320.191,60.072,322.415,60.887,320.858,63.259z
				 M294.396,75.341c10.081-5.93,14.825-15.565,12.379-15.565C304.254,59.775,294.396,75.341,294.396,75.341z"/>
			<path fill="#603F4B" d="M373.186,62.74c-1.482,2.224-16.825,21.348-24.385,24.016l-0.223,0.297l-0.89,1.408
				c-4.744,7.042-10.303,13.787-16.01,18.827c-5.337,5.04-9.858,8.376-15.714,8.376c-2.891,0-6.597-2.446-6.968-7.338
				c-0.444-4.818,26.536-16.826,26.536-16.826c0.89-0.964,2.076-2.743,3.336-4.744c-0.741,0.444-1.409,0.741-2.076,0.741
				c-2.965,0-7.042-2.298-7.561-7.856c-0.445-5.264,11.637-21.57,11.044-28.538c-0.148-1.778,5.93,1.112,6.449,7.116
				c0.518,5.93-14.38,26.239-9.785,26.239c5.115,0,20.013-25.424,19.272-33.948c-0.148-1.408,5.04,2.075,5.56,7.783
				c0.296,4.003-3.559,13.046-9.934,23.645c4.67-3.335,14.306-12.823,19.643-20.754C372.52,59.553,374.743,60.294,373.186,62.74z
				 M332.938,94.909c0,0-22.237,11.267-22.014,13.861c0.148,1.335,1.26,2.15,2.594,2.15
				C320.782,110.921,332.938,94.909,332.938,94.909z"/>
			<path fill="#603F4B" d="M388.159,77.713c-0.223,0.297-0.52,0.668-0.815,0.964c0,0-0.371,0.445-1.038,1.186
				c-3.559,3.706-7.932,6.968-12.008,7.562c-0.074,0.073-0.148,0.073-0.223,0.073c-0.147,0-0.296,0-0.371,0.074
				c-0.296,0-0.518,0-0.74,0c-2.965,0-7.931-1.482-7.931-9.339c0-13.269,14.232-27.574,22.311-27.574
				c4.15,0,7.116,2.742,8.968,5.855c0.297,0.52-0.296,1.557-3.631,1.557c-12.305,0-24.905,26.388-18.457,26.388
				c4.373,0,12.453-8.746,12.453-8.746s-0.668-1.853-0.668-4.521c0-6.004,7.339-8.673,7.339-2.446c0,1.334-1.334,3.706-3.706,6.819
				c0.223,0.223,1.037,0.519,1.408,0.519c3.558,0,6.968-5.559,12.972-14.602c1.038-1.631,3.335-0.815,1.704,1.556
				c-1.408,2.225-8.598,15.641-14.898,15.641C389.715,78.677,388.751,78.157,388.159,77.713z"/>
			<path fill="#603F4B" d="M413.952,75.192c0,0-8.82,12.379-13.342,12.379c-3.188,0-6.523-2.298-6.078-7.931
				c0.371-5.188,13.416-21.645,13.936-28.612c0.148-1.704,6.893,0.89,6.447,6.82c-0.444,5.93-17.862,26.684-12.971,26.684
				c1.854,0,24.461-25.054,25.054-33.578c0.148-1.704,6.522,1.631,6.078,7.635c-0.444,6.005-17.271,26.018-12.823,26.018
				c2.224,0,14.454-13.046,21.051-22.979c1.038-1.556,3.336-0.815,1.705,1.557c-1.557,2.446-17.789,24.387-24.535,24.387
				C413.137,87.571,410.987,79.047,413.952,75.192z"/>
			<path fill="#603F4B" d="M453.087,75.192c0-6.819,12.526-24.831,18.382-24.831c2.299,0,2.891,2.743,2.891,2.743
				c0-0.667,3.262-2.817,3.262-4.3c0-1.334,3.188,0.741,3.188,6.598c0,8.302-5.039,6.226-5.039,13.712
				c-5.338,0-5.932-8.302-5.932-8.302s-8.672,8.747-8.672,18.234c0,3.484,2.076,4.67,4.002,4.67c2.299,0,15.492-12.675,22.09-22.533
				c1.111-1.631,3.336-0.89,1.779,1.557c-1.631,2.372-19.272,24.831-26.018,24.831C455.608,87.571,453.087,82.013,453.087,75.192z"
				/>
			<path fill="#603F4B" d="M516.313,103.211c0,0-2,5.264-9.783,5.264s-18.234-7.116-18.234-21.496
				c0-10.451,6.521-21.792,10.08-27.203c-2.148,0.964-5.93,2.224-10.154,2.224c-2.076,0-5.707-1.187-5.707-9.34
				c0-11.637,8.82-19.865,13.934-19.865c2.743,0,5.041,1.779,5.041,4.818c0,6.004-10.303,19.865-10.303,19.865
				s9.858-5.114,11.414-6.004c1.039-0.594,1.928-1.705,3.188-0.667c1.187,1.037,7.043,5.337,3.707,9.117
				c-3.41,3.854-13.343,17.492-13.343,30.316c0,12.823,7.042,16.011,11.415,16.011s6.449-1.854,7.19-3.188
				C515.573,101.729,516.313,103.211,516.313,103.211z M489.481,56.365c4.299-7.856,8.895-14.898,6.375-14.898
				c-2.521,0-7.709,7.264-7.709,10.896C488.147,54.957,489.481,56.365,489.481,56.365z"/>
			<path fill="#603F4B" d="M536.176,58.441c-8.672,0-28.389,25.202-23.052,25.202c1.779,0,17.122-16.975,16.382-18.31
				c-0.816-1.334,5.262-0.222,5.262,5.189s-6.967,13.193-4.596,13.193c2.299,0,13.416-12.23,19.939-22.089
				c1.111-1.63,3.336-0.889,1.779,1.557c-1.631,2.372-17.123,24.387-23.867,24.387c-3.039,0-6.005-4.596-6.005-6.448
				c0-1.779,1.261-4.521,1.261-4.521s-9.34,10.97-12.082,10.97c-2.669,0-6.968-3.409-6.968-8.673
				c0-8.598,18.012-28.314,26.313-28.314C534.917,50.584,537.807,58.441,536.176,58.441z"/>
			<path fill="#603F4B" d="M561.823,57.774c0,6.893-15.641,24.163-11.712,24.163s26.685-25.127,26.685-36.098
				c0-7.931-7.041-10.006-7.041-10.006s-0.223,0.37-1.558,0.37c-2.298,0-2.743-2.224,0.667-2.224
				c3.336,0,15.641,4.818,15.641,16.381c0,11.563-29.354,32.837-31.354,34.838c-0.964,0.964-2.001,2.372-4.077,2.372
				c-4.447,0-6.3-6.004-6.3-9.784c0-5.411,10.747-18.16,10.747-26.61C553.52,49.398,561.823,50.88,561.823,57.774z"/>
			<path fill="#603F4B" d="M608.741,62.963c-1.631,2.371-17.715,24.461-24.534,24.461c-5.634,0-6.968-6.079-6.597-10.081
				c0.445-5.337,8.005-14.38,11.489-23.275c0.519-1.408,0.147-3.261,1.927-3.261s5.115,2.891,4.596,8.672
				c-0.52,5.782-16.975,24.09-9.191,24.09c2.225,0,13.936-12.229,20.531-22.236C608.075,59.775,610.297,60.517,608.741,62.963z
				 M595.325,40.133c0.445-5.411,3.855-7.19,5.56-7.19s6.894,2.298,6.671,4.818s-2.52,2.891-4.818,6.894
				c-2.297,3.929-2.148,4.002-3.261,4.002C597.771,48.656,594.807,45.544,595.325,40.133z"/>
			<path fill="#603F4B" d="M614.745,78.157c0-6.226,10.971-21.051,10.971-21.051c-2.446,0-23.646,24.683-23.646,28.167
				c0,5.485-5.039,0-5.039-5.855c0-6.078,14.676-21.422,14.676-28.834c0-2.595,5.411,0.223,5.411,7.635
				c0,3.632-2.521,6.078-2.521,6.078s13.49-13.713,16.012-13.713c2.594,0,4.15,3.78,4.15,7.412s-17.346,25.796-13.936,25.796
				c4.447,0,15.27-12.75,21.866-22.608c1.038-1.631,3.262-0.89,1.704,1.557c-1.556,2.372-17.27,24.831-24.607,24.831
				C616.894,87.571,614.745,83.717,614.745,78.157z"/>
			<path fill="#603F4B" d="M681.158,63.185c-1.481,2.224-17.048,21.645-24.608,24.091l-0.148,0.222l-1.631,2.817
				c-8.079,13.119-19.271,25.794-30.836,25.794c-2.891,0-6.521-2.445-6.893-7.264c-0.444-4.893,26.536-16.899,26.536-16.899
				c3.113-3.484,10.007-16.826,10.007-16.826s-9.637,12.305-12.379,12.305c-2.668,0-7.264-3.41-7.709-8.673
				c-0.74-8.524,15.566-28.241,23.942-28.241c4.298,0,7.856,7.783,6.226,7.783c-8.672,0-26.239,25.275-20.902,25.275
				c1.779,0,15.715-16.974,14.824-18.382c-0.889-1.334,5.264-0.148,5.708,5.263c0.222,2.372-1.409,6.967-4.373,12.526
				c4.373-2.742,14.898-12.897,20.532-21.348C680.491,59.998,682.715,60.812,681.158,63.185z M640.909,95.354
				c0,0-22.162,11.267-21.94,13.936c0.148,1.26,1.261,2.075,2.595,2.075C628.827,111.365,640.909,95.354,640.909,95.354z"/>
			<path fill="#603F4B" d="M722,41.911c-1.335,9.933-32.466,18.161-33.504,26.018c-0.37,2.742,1.26,3.113,1.038,4.521
				c-0.223,1.631-7.783,0.593-6.895-6.004c1.928-14.157,31.873-18.086,33.504-30.02c1.408-10.304-31.798,3.261-32.688,9.562
				c-0.668,5.188-5.411-1.26-4.967-4.447l0.074-0.593c1.037-8.006,19.271-14.825,30.02-14.825
				C719.108,26.123,722.889,35.092,722,41.911z M689.459,84.014c0,4.447-4.596,4.447-4.893,4.447c-2.445,0-5.115-1.557-5.115-4.447
				c0-2.965,2.373-4.373,4.818-4.373C686.643,79.641,689.459,80.975,689.459,84.014z"/>
		</g>
	</g>
</g>
<g id="Layer_2" display="none">
	<path display="inline" fill="none" stroke="#ED1C24" stroke-miterlimit="10" d="M41.558,63.738c0,0-6.833,7.334-18,6.167
		s-20.333-14.667-3.5-34s41.833-19,46.5-19s21.167,4,2,30.5S45.391,83.571,46.725,85.738s5.834-4,15.667-14.333s22-25,23.833-23.833
		s2.833,1.833-3.667,15.833s-8,24.166-5,23.166s14.167-12.333,17.667-16.166s30-35.5,2.667-47"/>
	<path display="inline" fill="none" stroke="#ED1C24" stroke-miterlimit="10" d="M135.391,29.405c0,0-27.25,46.75-28.25,56.25
		c0,0,22-27,26.5-30s8.75,0,3,7.75s-10.5,18.75-7.75,21s6.25,0.25,11.5-4.75s22.75-26.5,30-26.5c0,0-14.25,9-19.5,21.25
		s-1.5,13.5,6.5,6.5s13-14.75,13-14.75s-8,12.25-6,16.25s4.75,3.25,7.75,1s25-23.75,39.5-59.5c0,0-17.75,38.75-24.75,53
		s6,7.5,11.25,1.75s16-18,16-18"/>
	<path display="inline" fill="none" stroke="#ED1C24" stroke-miterlimit="10" d="M180.891,34.905c0,0,3.5,5.75,16.75,4.25
		s28.5-2.25,31.75,5.75"/>
	<path display="inline" fill="none" stroke="#ED1C24" stroke-miterlimit="10" d="M250.641,52.405c0,0-12.5,4.5-23.75,17.75
		s-1.5,17.25,2,14s17.75-18.25,17.75-18.25s-10.75,29.5,1.25,17.75s29.5-36,28.25-45.5s-25.25,24.5-6.25,20.75s14-2.5,14-2.5
		s-15,12.75-15,29.75s17.75,27.5,25.75,16"/>
	<path display="inline" fill="none" stroke="#ED1C24" stroke-miterlimit="10" d="M290.391,76.655c0,0,8,0.5,15-8.75s4.25-15.75-1-13
		s-20.75,24-15.5,29.5s23-9.5,32.25-23.25"/>
	<path display="inline" fill="none" stroke="#ED1C24" stroke-miterlimit="10" d="M341.891,49.655c0,0,3,9-2.5,19
		s-8.75,19.75-0.5,17.25s19.25-25.25,22-35.75c0,0-15.25,34.75-20.25,42.5s-17.75,18.75-23.25,20.25s-11.5-4.25-2-9.5
		s33-17.25,38.5-21.5s30.25-33.25,37.75-27c0,0-9-3.5-19.75,14.5s2,20.25,10.5,11.75s9.75-11.75,9.5-13.75s-4-1-4,2.25s-0.25,12,8,5
		s14.25-20,14.75-20.75s-17.5,29.75-10.75,32s27.75-31.25,29.25-33.5c0,0-13.5,23.5-13,30s5,3.5,9.75-1s18.25-22.25,18.25-22.25"/>
	<path display="inline" fill="none" stroke="#ED1C24" stroke-miterlimit="10" d="M481.391,47.905c0,0-8.25,10.5-7.75,16
		c0,0,0.25-13.25-3.5-9.25s-12.25,14.5-13,23.75s8,9.5,16.75,0s18.25-22.5,21.5-29.75s6.75-16.75-3.75-9.75s-10,27.25,4,18.75
		s10.25,0.25,3.75,10.75s-8.75,26.5-5,32s14.25,11.25,23.5,1.5"/>
	<path display="inline" fill="none" stroke="#ED1C24" stroke-miterlimit="10" d="M534.891,53.155c0,0-14.25,6-20.5,14.25
		s-6.75,21-1,17s17-16.75,17-16.75s-7.25,17.75-2,18.25s23.25-22,27-30c0,0-13.25,27.75-7.75,28.5s24.75-18.75,28.75-25.25
		s8.75-22.25-10-24.5"/>
	<path display="inline" fill="none" stroke="#ED1C24" stroke-miterlimit="10" d="M594.391,54.155c0,0-15.25,24.75-12.75,29.25
		s7.5-0.25,14-5.5s16.75-22.5,18.75-26c0,0-13.5,25.75-14,31.75c0,0,25-31.75,29.5-31s-0.25,8.25-3.5,13.75s-13.25,24.75-4.75,18.75
		s30.5-31.25,35.5-31.5c0,0-12.25,11-15.5,18.75s-3.75,16.5,2.5,11.5s14.5-18,14.5-18s-5.5,25-15,34.75s-21.75,15.5-24.75,10.5
		s12-11.5,18.25-14.75s30.5-14,43.75-34"/>
	<path display="inline" fill="none" stroke="#ED1C24" stroke-miterlimit="10" d="M679.141,44.905c0,0,6.75-12.75,23-15.25
		s18.25,4.5,17.5,7.25s-2.25,8.5-14.25,14.5s-22.5,10.5-18.75,21.75"/>
	<ellipse display="inline" fill="none" stroke="#ED1C24" stroke-miterlimit="10" cx="684.766" cy="84.182" rx="1.875" ry="1.731"/>
</g>
<g id="Layer_3">
	<path d="M42.196,68.003c0,4.744-10.081,6.819-13.045,6.819c-9.71,0-20.903-6.448-20.903-18.976
		c0-16.455,27.722-37.283,57.149-37.283c7.486,0,17.641,3.706,17.641,13.639c0,13.045-29.427,47.735-29.427,51.07
		C57.54,80.085,85.78,48.732,85.78,48.732c0-5.263,7.857,2.742,7.857,7.115c0,4.374-12.082,22.386-12.082,30.613
		c8.228-7.263,25.943-27.648,25.943-44.399c0-8.154-4.3-13.343-7.116-13.343c-2.742,0-4.15-2.594,0.594-2.594
		c4.67,0,16.307,6.004,16.307,19.864c0,13.936-38.173,48.18-39.211,48.18c-1.038,0-6.3-1.111-6.3-9.857
		c0-8.748,11.711-27.723,11.711-27.723C65.026,74.675,52.128,92.167,52.128,92.167c0,3.855-8.969,1.262-8.969-5.707
		c0-10.748,33.578-45.511,33.578-56.926c0-3.632-3.854-7.857-10.822-7.857c-23.646,0-49.144,24.609-49.144,40.99
		c0,7.635,6.819,9.414,10.822,9.414C37.007,72.081,42.196,63.334,42.196,68.003z"/>
	<path d="M232.393,48.139c-1.112-4.003-5.337-8.97-14.603-8.97c-0.741,0-1.408,0-2.149,0c1.63-3.187,2.595-5.633,2.595-6.893
		c0-7.487-7.19-10.081-7.19-7.932c0,2.446-2.595,8.153-6.3,15.121c-2.595,0.297-6.523,0.593-10.971,0.593
		c-5.115,0-8.82-1.705-10.971-3.483c-1.26-1.112-2.445-0.593-1.557,2.001c1.112,2.965,4.151,6.227,12.379,6.227
		c2.965,0,5.707,0,8.302-0.148c-3.593,6.564-7.673,13.646-11.116,19.953c-0.078,0.085-0.153,0.179-0.225,0.282
		c-6.522,9.858-17.641,22.089-19.939,22.089c-2.371,0,4.596-7.783,4.596-13.194s-6.078-6.523-5.262-5.189
		c0.74,1.335-14.604,18.309-16.382,18.309c-5.337,0,14.38-25.202,23.053-25.202c1.63,0-1.261-7.857-5.634-7.857
		c-6.349,0-18.367,11.527-23.676,20.799c-5.662,6.701-11.506,12.334-13.014,12.334c-6.968,0,10.822-21.57,10.822-25.203
		c0-3.558-1.038-7.782-4.078-7.782c-3.039,0-20.605,16.899-20.605,16.899s18.901-26.091,18.901-32.317
		c0-6.152-5.782-9.191-5.782-7.709c0,8.302-28.537,46.179-28.537,53.667c0,4.891,6.301,7.93,6.301,5.039
		c0-6.967,24.535-29.056,24.535-29.056s-10.674,15.491-10.674,19.791c0,4.298,2.075,10.525,6.893,10.525
		c3.052,0,8.014-4.508,12.678-9.662c-0.047,0.343-0.077,0.675-0.077,0.989c0,5.264,4.299,8.672,6.968,8.672
		c2.742,0,12.082-10.969,12.082-10.969s-1.26,2.742-1.26,4.522c0,1.852,2.965,6.447,6.004,6.447c3.941,0,10.871-7.52,16.275-14.244
		c-1.052,2.46-1.674,4.417-1.674,5.646c0,3.558,0.889,8.597,6.449,8.597c6.818,0,23.422-22.014,24.979-24.386
		c1.631-2.445-0.666-3.187-1.705-1.557c-6.596,9.858-18.826,22.089-21.051,22.089c-5.41,0,12.156-26.462,21.273-42.992
		c1.482-0.074,3.039-0.074,4.596-0.074c8.229,0,12.898,4.373,12.898,6.523C230.541,50.437,233.134,50.733,232.393,48.139z"/>
	<path d="M294.431,106.325c-0.74,1.334-2.816,3.188-7.189,3.188s-11.415-3.188-11.415-16.01c0-12.825,9.933-26.462,13.342-30.317
		c3.336-3.78-2.521-8.08-3.706-9.117c-1.26-1.038-2.149,0.073-3.188,0.667c-1.557,0.89-11.414,6.004-11.414,6.004
		s10.303-13.861,10.303-19.865c0-3.039-2.298-4.818-5.041-4.818c-5.113,0-13.935,8.229-13.935,19.865
		c0,6.335,2.192,8.458,4.144,9.092c-6.533,9.837-17.568,21.966-19.856,21.966c-2.372,0,4.595-7.783,4.595-13.194
		s-6.077-6.523-5.262-5.189c0.74,1.335-14.603,18.309-16.381,18.309c-5.338,0,14.379-25.202,23.052-25.202
		c1.631,0-1.261-7.857-5.634-7.857c-8.302,0-26.313,19.717-26.313,28.314c0,5.264,4.3,8.672,6.968,8.672
		c2.742,0,12.082-10.969,12.082-10.969s-1.26,2.742-1.26,4.522c0,1.852,2.965,6.447,6.004,6.447
		c6.744,0,22.236-22.014,23.867-24.386c0.299-0.47,0.457-0.875,0.512-1.214c3.893-0.146,7.336-1.294,9.346-2.195
		c-3.559,5.411-10.08,16.752-10.08,27.204c0,14.379,10.451,21.496,18.233,21.496c7.783,0,9.784-5.264,9.784-5.264
		S295.248,104.991,294.431,106.325z M267.822,55.625c0-3.633,5.188-10.896,7.709-10.896c2.52,0-2.076,7.042-6.375,14.898
		C269.156,59.627,267.822,58.219,267.822,55.625z"/>
	<path d="M322.449,66.521c-1.557,2.446-19.42,24.312-28.834,24.312c0,0-7.116-0.074-7.116-9.19
		c0-13.417,17.716-27.797,22.607-27.797c1.928,0,5.188,1.334,5.188,8.376s-15.714,19.197-19.568,19.197c0,0-2.742,4.966,1.111,4.966
		c4.967,0,18.309-11.563,24.832-21.421C321.781,63.334,324.005,64.149,322.449,66.521z M295.986,78.603
		c10.082-5.93,14.825-15.565,12.379-15.565C305.845,63.038,295.986,78.603,295.986,78.603z"/>
	<path d="M442.894,64.89c-6.598,9.933-18.828,22.978-21.051,22.978c-4.447,0,12.379-20.012,12.822-26.017
		c0.445-6.004-5.93-9.339-6.078-7.635c-0.592,8.524-23.199,33.578-25.053,33.578c-4.893,0,12.525-20.753,12.971-26.683
		c0.445-5.931-6.299-8.524-6.447-6.82c-0.186,2.483-1.965,6.175-4.191,10.13c-0.09,0.096-0.178,0.199-0.256,0.322
		c-6.004,9.043-9.414,14.602-12.971,14.602c-0.371,0-1.186-0.296-1.408-0.519c2.371-3.113,3.705-5.485,3.705-6.819
		c0-6.227-7.338-3.558-7.338,2.446c0,2.669,0.668,4.521,0.668,4.521s-8.08,8.746-12.453,8.746c-6.449,0,6.152-26.387,18.457-26.387
		c3.334,0,3.928-1.037,3.631-1.557c-1.852-3.113-4.818-5.855-8.969-5.855c-4.277,0-10.281,4.013-14.982,9.758
		c-0.316,0.129-0.631,0.379-0.879,0.768c-5.336,7.931-14.973,17.419-19.643,20.754c6.375-10.599,10.229-19.642,9.934-23.645
		c-0.52-5.708-5.708-9.191-5.56-7.783c0.741,8.524-14.157,33.948-19.272,33.948c-4.596,0,10.303-20.309,9.785-26.239
		c-0.52-6.004-6.598-8.895-6.449-7.116c0.593,6.968-11.489,23.274-11.045,28.538c0.52,5.559,4.596,7.856,7.561,7.856
		c0.668,0,1.335-0.297,2.076-0.74c-1.26,2-2.446,3.779-3.336,4.744c0,0-26.98,12.008-26.536,16.826
		c0.371,4.891,4.077,7.338,6.968,7.338c5.855,0,10.377-3.336,15.715-8.377c5.707-5.039,11.266-11.785,16.01-18.826l0.89-1.408
		l0.223-0.297c4.562-1.611,11.954-9.209,17.429-15.474c-0.758,2.294-1.197,4.638-1.197,6.95c0,7.856,4.967,9.338,7.932,9.338
		c0.223,0,0.443,0,0.74,0c0.074-0.074,0.223-0.074,0.371-0.074c0.074,0,0.148,0,0.223-0.072c4.076-0.594,8.449-3.855,12.008-7.562
		c0.666-0.74,1.037-1.186,1.037-1.186c0.297-0.296,0.594-0.667,0.816-0.964c0.592,0.444,1.557,0.964,2.668,0.964
		c1.518,0,3.088-0.784,4.617-1.999c-0.523,1.186-0.857,2.199-0.912,2.963c-0.445,5.633,2.891,7.93,6.078,7.93
		c4.521,0,13.342-12.378,13.342-12.378c-2.965,3.854-0.814,12.378,4.521,12.378c6.746,0,22.979-21.94,24.535-24.386
		C446.23,64.075,443.931,63.334,442.894,64.89z M315.109,114.183c-1.335,0-2.447-0.814-2.595-2.15
		c-0.223-2.594,22.015-13.861,22.015-13.861S322.373,114.183,315.109,114.183z"/>
	<path d="M516.347,106.325c-0.74,1.334-2.816,3.188-7.189,3.188s-11.416-3.188-11.416-16.01c0-12.825,9.934-26.462,13.344-30.317
		c3.336-3.78-2.521-8.08-3.707-9.117c-1.26-1.038-2.148,0.073-3.188,0.667c-1.557,0.89-11.414,6.004-11.414,6.004
		s10.303-13.861,10.303-19.865c0-3.039-2.299-4.818-5.041-4.818c-5.113,0-13.934,8.229-13.934,19.865
		c0,6.525,2.324,8.584,4.318,9.147c-6.723,9.762-19.414,21.911-21.664,21.911c-1.926,0-4.002-1.186-4.002-4.67
		c0-9.487,8.672-18.234,8.672-18.234s0.594,8.302,5.932,8.302c0-7.486,5.039-5.41,5.039-13.712c0-5.856-3.188-7.932-3.188-6.598
		c0,1.482-3.262,3.633-3.262,4.3c0,0-0.592-2.743-2.891-2.743c-5.855,0-18.383,18.012-18.383,24.831
		c0,6.82,2.521,12.378,9.934,12.378c6.744,0,24.387-22.458,26.018-24.831c0.182-0.286,0.307-0.547,0.395-0.785
		c3.727-0.207,7.002-1.309,8.943-2.18c-3.559,5.411-10.08,16.752-10.08,27.204c0,14.379,10.451,21.496,18.234,21.496
		s9.783-5.264,9.783-5.264S517.164,104.991,516.347,106.325z M497.447,44.729c2.52,0-2.076,7.042-6.375,14.898
		c0,0-1.334-1.408-1.334-4.002C489.738,51.993,494.925,44.729,497.447,44.729z"/>
	<path d="M570.455,37.243c-3.41,0-2.965,2.224-0.668,2.224c1.336,0,1.559-0.37,1.559-0.37s7.041,2.075,7.041,10.006
		c0,10.971-22.756,36.098-26.686,36.098c-3.928,0,11.713-17.271,11.713-24.164c0-6.895-8.303-8.376-8.303-6.598
		c0,2.995-1.352,6.529-3.096,10.086c-0.109,0.106-0.217,0.224-0.312,0.365c-6.523,9.858-17.641,22.089-19.939,22.089
		c-2.371,0,4.596-7.783,4.596-13.194s-6.078-6.523-5.262-5.189c0.74,1.335-14.604,18.309-16.383,18.309
		c-5.336,0,14.381-25.202,23.053-25.202c1.631,0-1.26-7.857-5.633-7.857c-8.303,0-26.314,19.717-26.314,28.314
		c0,5.264,4.299,8.672,6.969,8.672c2.742,0,12.082-10.969,12.082-10.969s-1.262,2.742-1.262,4.522c0,1.852,2.967,6.447,6.006,6.447
		c3.826,0,10.467-7.084,15.795-13.65c-0.645,1.505-1.047,2.823-1.047,3.866c0,3.78,1.854,9.784,6.301,9.784
		c2.076,0,3.113-1.408,4.076-2.371c2.002-2.002,31.355-23.275,31.355-34.838C586.095,42.061,573.791,37.243,570.455,37.243z"/>
	<path d="M596.916,43.395c0.445-5.411,3.855-7.19,5.559-7.19c1.705,0,6.895,2.298,6.672,4.818s-2.52,2.891-4.818,6.894
		c-2.297,3.929-2.148,4.002-3.262,4.002C599.361,51.918,596.398,48.806,596.916,43.395z M682.748,66.447
		c-1.48,2.224-17.047,21.644-24.607,24.091l-0.148,0.221l-1.631,2.818c-8.08,13.119-19.271,25.793-30.836,25.793
		c-2.891,0-6.521-2.445-6.893-7.264c-0.445-4.893,26.535-16.898,26.535-16.898c3.113-3.484,10.008-16.827,10.008-16.827
		s-9.637,12.305-12.379,12.305c-2.668,0-7.264-3.41-7.709-8.673c-0.053-0.591-0.014-1.241,0.092-1.931
		c-4.875,5.618-10.295,10.75-13.803,10.75c-2.893,0-5.041-3.854-5.041-9.414c0-6.226,10.971-21.051,10.971-21.051
		c-2.447,0-23.646,24.683-23.646,28.167c0,5.484-5.039,0-5.039-5.856c0-0.671,0.188-1.46,0.506-2.334
		c-4.848,5.436-10.117,10.34-13.33,10.34c-5.633,0-6.967-6.08-6.596-10.082c0.445-5.337,8.004-14.38,11.488-23.275
		c0.52-1.408,0.148-3.261,1.928-3.261s5.115,2.891,4.596,8.672c-0.52,5.782-16.975,24.09-9.191,24.09
		c2.225,0,13.936-12.23,20.531-22.237c0.109-0.154,0.232-0.279,0.359-0.389c2.457-3.949,4.385-7.675,4.385-10.359
		c0-2.595,5.41,0.223,5.41,7.635c0,3.371-2.168,5.718-2.48,6.037c0.803-0.812,13.531-13.672,15.973-13.672
		c2.594,0,4.15,3.78,4.15,7.412s-17.346,25.795-13.936,25.795c3.127,0,9.406-6.305,15.152-13.476
		c4.775-9.057,15.279-19.806,21.463-19.806c4.299,0,7.857,7.783,6.227,7.783c-8.672,0-26.24,25.276-20.902,25.276
		c1.779,0,15.715-16.974,14.824-18.382c-0.889-1.334,5.264-0.148,5.707,5.263c0.223,2.372-1.408,6.967-4.373,12.526
		c4.373-2.742,14.898-12.897,20.533-21.347C682.082,63.26,684.306,64.075,682.748,66.447z M642.5,98.616
		c0,0-22.162,11.268-21.941,13.936c0.148,1.26,1.262,2.076,2.596,2.076C630.417,114.628,642.5,98.616,642.5,98.616z"/>
	<path d="M723.589,45.173c-1.334,9.933-32.465,18.161-33.504,26.018c-0.369,2.742,1.26,3.113,1.039,4.521
		c-0.223,1.631-7.783,0.593-6.895-6.004c1.928-14.157,31.873-18.086,33.504-30.02c1.408-10.304-31.799,3.261-32.688,9.562
		c-0.668,5.188-5.412-1.26-4.967-4.447l0.074-0.593c1.037-8.006,19.271-14.825,30.02-14.825
		C720.699,29.385,724.48,38.354,723.589,45.173z M691.05,87.276c0,4.447-4.596,4.447-4.893,4.447c-2.445,0-5.115-1.557-5.115-4.447
		c0-2.965,2.373-4.374,4.818-4.374C688.234,82.903,691.05,84.237,691.05,87.276z"/>
	<path fill="none" stroke="#ED1C24" stroke-miterlimit="10" d="M43.148,67c0,0-6.833,7.334-18,6.167s-20.333-14.667-3.5-34
		c16.833-19.333,41.833-19,46.5-19s21.167,4,2,30.5S46.981,86.833,48.315,89.001c1.333,2.166,5.834-4,15.667-14.333
		c9.833-10.333,22-25,23.833-23.833c1.833,1.166,2.833,1.833-3.667,15.833s-8,24.166-5,23.166S93.315,77.5,96.815,73.667
		s30.001-35.5,2.667-47"/>
	<path fill="none" stroke="#ED1C24" stroke-miterlimit="10" d="M136.982,32.667c0,0-27.25,46.75-28.25,56.25c0,0,22-27,26.5-30
		s8.75,0,3,7.75s-10.5,18.75-7.75,21s6.25,0.25,11.5-4.75c5.25-5,22.75-26.5,30-26.5c0,0-14.25,9-19.5,21.25
		c-5.25,12.25-1.5,13.5,6.5,6.5c8-7,13-14.75,13-14.75s-8,12.25-6,16.25c2,4,4.75,3.25,7.75,1
		c2.546-1.909,26.576-26.798,40.826-57.762h0.188c-13.187,28.554-20.907,43.007-26.033,53.442c-7,14.248,6,7.498,11.25,1.75
		c5.25-5.75,13.845-18.441,13.845-18.441l-0.983-0.766l-28.49-23.866l-2.276-3.146c0,0,4.527,6.167,17.777,4.667
		c2.396-0.271,27.641-4.667,31.724,6.944"/>
	<path fill="none" stroke="#ED1C24" stroke-miterlimit="10" d="M252.232,55.667c0,0-12.5,4.5-23.75,17.75
		c-11.25,13.25-1.5,17.25,2,14s17.75-18.25,17.75-18.25s-10.75,29.5,1.25,17.75c12-11.75,29.5-36,28.25-45.5s-25.25,24.5-6.25,20.75
		s14-2.5,14-2.5s-15,12.75-15,29.75c0,17,17.75,27.5,25.75,16"/>
	<path fill="none" stroke="#ED1C24" stroke-miterlimit="10" d="M291.982,79.917c0,0,8,0.5,15-8.75s4.25-15.75-1-13
		s-20.75,24-15.5,29.5c5.25,5.5,23-9.5,32.25-23.25"/>
	<path fill="none" stroke="#ED1C24" stroke-miterlimit="10" d="M343.482,52.917c0,0,3,9-2.5,19s-8.75,19.75-0.5,17.25
		s19.25-25.25,22-35.75c0,0-15.25,34.75-20.25,42.5s-17.75,18.75-23.25,20.25s-11.5-4.25-2-9.5s33-17.25,38.5-21.5
		c5.5-4.25,30.25-33.25,37.75-27c0,0-9-3.5-19.75,14.5c-10.75,18,2,20.25,10.5,11.75c8.5-8.5,9.75-11.75,9.5-13.75s-4-1-4,2.25
		s-0.25,12,8,5c8.25-7,14.25-20,14.75-20.75s-17.5,29.75-10.75,32s27.75-31.25,29.25-33.5c0,0-13.5,23.5-13,30c0.5,6.5,5,3.5,9.75-1
		c4.75-4.5,18.25-22.25,18.25-22.25"/>
	<path fill="none" stroke="#ED1C24" stroke-miterlimit="10" d="M477.829,52.917c0,0,2.454,1.739,2.125,3.738
		c-0.221,1.346-3.729,11.75-3.25,15c0,0-2.205-2.188-2.625-5.25c-0.607-4.422,0.778-12.426-1.438-10.062
		c-3.75,4-13.159,16.075-13.909,25.325c-0.75,9.25,8,9.5,16.75,0c8.75-9.5,18.25-22.5,21.5-29.75s6.75-16.75-3.75-9.75
		s-10,27.25,4,18.75s10.25,0.25,3.75,10.75s-8.75,26.5-5,32s14.25,11.25,23.5,1.5"/>
	<path fill="none" stroke="#ED1C24" stroke-miterlimit="10" d="M536.482,56.417c0,0-14.25,6-20.5,14.25s-6.75,21-1,17
		s17-16.75,17-16.75s-7.25,17.75-2,18.25s23.25-22,27-30c0,0-13.25,27.75-7.75,28.5s24.75-18.75,28.75-25.25s8.75-22.25-10-24.5"/>
	<path fill="none" stroke="#ED1C24" stroke-miterlimit="10" d="M598.016,64.038c0,0-5.011-8.462-5.312-7.945
		c-2.812,4.812-11.295,27.293-9.472,30.574c2.5,4.5,7.5-0.25,14-5.5c6.5-5.25,16.75-22.5,18.75-26c0,0-13.5,25.75-14,31.75
		c0,0,25-31.75,29.5-31s-0.25,8.25-3.5,13.75s-13.25,24.75-4.75,18.75c8.5-6,30.5-31.25,35.5-31.5c0,0-12.25,11-15.5,18.75
		c-3.25,7.75-3.75,16.5,2.5,11.5c6.25-5,14.5-18,14.5-18s-5.5,25-15,34.75s-21.75,15.5-24.75,10.5s12-11.5,18.25-14.75
		s30.5-14,43.75-34L598.016,64.038z"/>
	<path fill="none" stroke="#ED1C24" stroke-miterlimit="10" d="M680.732,48.167c0,0,6.75-12.75,23-15.25s18.25,4.5,17.5,7.25
		s-2.25,8.5-14.25,14.5s-22.5,10.5-18.75,21.75"/>
	<path fill="none" stroke="#ED1C24" stroke-miterlimit="10" d="M607.847,44.95c0,0-1.092-4.472-1.9-5.271
		c-1.248-1.234-3.06-2.659-4.203-1.918c-1.434,0.93-3.053,5.02-2.729,8.083c0.12,1.142,1.919,4.938,2.439,6.5"/>
	<path fill="none" stroke="#ED1C24" stroke-miterlimit="10" d="M684.056,91.113c0,0,2.729,0.252,3.733-0.077
		c0.653-0.214,1.174-0.083,1.385-0.551c0.006-0.013-4.636-7.594-4.439-7.512c2.104,0.88,3.113,4.17,3.688,5.646
		c0.055,0.141-3.282-6.604-2.157-5.646c0.497,0.423,2.223,4.416,2.657,5.583c0.282,0.757-1.854-6.226-1.47-5.86
		c0.247,0.236,1.425,1.36,1.741,3.172c0.112,0.647,0.446,2.974,0.925,4.099c0.011,0.024,0.154-0.394,0.485-0.842
		c0.224-0.303-0.367-0.692-0.256-1.055c0.13-0.422,0.799-0.583,0.792-1.127c-0.006-0.443-1.146,0.814-1.229,0.148
		c-0.063-0.508-0.203-1.378-0.375-1.709c-0.357-0.689,1.544,1.581,1.417,0.954c-0.203-0.999-1.33-1.867-1.979-2.392
		c-0.439-0.354,0.617,6.194,0.616,6.194c-1.292,0.375-4.616-6.708-6.021-6.708c-0.396,0,5.317,6.575,5.217,6.631
		c-0.199,0.11-5.615-6.544-5.863-6.402c-0.341,0.194,5.144,6.967,5.084,6.75c-0.058-0.21-4.972-6.449-5.812-6.167
		c-0.25,0.084,5.969,6.971,4.771,6.479c-1.095-0.448-4.371-5.833-4.771-5.812c-2.114,0.109,4.548,5.996,4.25,6
		c-0.977,0.012-6.276-5.125-5.013-4.735c0.706,0.218,4.188,4.58,3.5,4.646c-1.291,0.125-3.448-4.602-3.693-3.876
		C680.92,87.885,683.209,91.496,684.056,91.113"/>
</g>
</svg>
